<svg xmlns="http://www.w3.org/2000/svg" version="1.1" xmlns:xlink="http://www.w3.org/1999/xlink" xmlns:svgjs="http://svgjs.dev/svgjs" width="1000" height="623" viewBox="0 0 1000 623"><g transform="matrix(1,0,0,1,-0.6060606060605664,0.2522267206477409)"><svg viewBox="0 0 396 247" data-background-color="#ffffff" preserveAspectRatio="xMidYMid meet" height="623" width="1000" xmlns="http://www.w3.org/2000/svg" xmlns:xlink="http://www.w3.org/1999/xlink"><g id="tight-bounds" transform="matrix(1,0,0,1,0.2400000000000091,-0.09999999999999432)"><svg viewBox="0 0 395.52 247.2" height="247.2" width="395.52"><g><svg></svg></g><g><svg viewBox="0 0 395.52 247.2" height="247.2" width="395.52"><g transform="matrix(1,0,0,1,75.54432,66.55566312579415)"><svg viewBox="0 0 244.43135999999998 114.0886737484117" height="114.0886737484117" width="244.43135999999998"><g><svg viewBox="0 0 244.43135999999998 114.0886737484117" height="114.0886737484117" width="244.43135999999998"><g><svg viewBox="0 0 244.43135999999998 114.0886737484117" height="114.0886737484117" width="244.43135999999998"><g><svg viewBox="0 0 244.43135999999998 114.0886737484117" height="114.0886737484117" width="244.43135999999998"><g id="textblocktransform"><svg viewBox="0 0 244.43135999999998 114.0886737484117" height="114.0886737484117" width="244.43135999999998" id="textblock"><g><svg viewBox="0 0 244.43135999999998 114.0886737484117" height="114.0886737484117" width="244.43135999999998"><g transform="matrix(1,0,0,1,0,0)"><svg width="244.43135999999998" viewBox="0.15000000596046448 -39.29999923706055 118.04000091552734 55.099998474121094" height="114.0886737484117" data-palette-color="#e6b17e"><path d="M18.75-1.8L18.75-1.8Q14.1 1.95 8.45 1.95L8.45 1.95Q2 1.95 0.5-1.65L0.5-1.65Q0.15-2.5 0.15-3.63 0.15-4.75 1.3-6.05L1.3-6.05Q3.1-8.1 6.3-8.1L6.3-8.1Q8.45-8.1 10.63-7.33 12.8-6.55 18.35-3.6L18.35-3.6Q20.85-6 23.35-10 25.85-14 27.68-17.73 29.5-21.45 32.13-25.85 34.75-30.25 37.35-33.15L37.35-33.15Q31.75-36.5 25.45-36.5L25.45-36.5Q22.85-36.5 20.15-35.95L20.15-35.95Q12.4-34.3 8.35-29.2L8.35-29.2Q5.85-26.1 5.85-23.3L5.85-23.3Q5.85-19.5 9.5-18.35L9.5-18.35Q10.8-18 11.75-18 12.7-18 13.88-18.3 15.05-18.6 16.2-19.7L16.2-19.7Q18.4-21.9 18.55-23.8L18.55-23.8Q18.6-24.25 19.13-24.13 19.65-24 19.55-23.35L19.55-23.35Q19.05-19.7 15.7-17.8L15.7-17.8Q13.65-16.7 11.6-16.7L11.6-16.7 9-17.15Q5.2-18.45 4-22L4-22Q3.5-23.35 3.5-24.7L3.5-24.7Q3.5-27.45 5.55-30.15L5.55-30.15Q9.95-36.05 21.15-37.7L21.15-37.7Q23.35-38 25.5-38L25.5-38Q32.45-38 38.75-34.7L38.75-34.7Q40.7-36.95 42.35-38.13 44-39.3 45-39.3L45-39.3Q45.55-39.3 45.65-39.08 45.75-38.85 45.63-38.73 45.5-38.6 45.3-38.6L45.3-38.6Q44.45-38.6 43.1-36.8 41.75-35 40.9-33.45L40.9-33.45Q46.25-29.9 49.05-24.35L49.05-24.35Q51.3-19.9 51.3-14.65L51.3-14.65Q51.3-8.15 48.2-4.3L48.2-4.3Q45.65-1.15 42 0.15L42 0.15Q37.65 1.7 33.4 1.7L33.4 1.7Q24.8 1.7 18.75-1.8ZM19.95-2.7L19.95-2.7Q25 0.3 31.8 0.3L31.8 0.3Q39.7 0.3 44.4-4.2L44.4-4.2Q48.15-7.85 48.15-14.3L48.15-14.3Q48.15-18.9 46.35-22.95L46.35-22.95Q44.1-28.1 39.7-31.55L39.7-31.55Q38.25-29.3 34.13-22.48 30-15.65 27.15-11.4 24.3-7.15 22.65-5.38 21-3.6 19.95-2.7ZM17.05-2.6L17.05-2.6Q11.2-5.4 9.65-5.95 8.1-6.5 6.63-6.5 5.15-6.5 4.28-5.4 3.4-4.3 3.4-3.43 3.4-2.55 3.8-1.75L3.8-1.75Q4.85 0.4 8.1 0.4L8.1 0.4Q12.9 0.4 17.05-2.6ZM68.75-13.55Q67.85-12.65 66.2-9.47 64.55-6.3 64.22-4.73 63.9-3.15 63.9-2.18 63.9-1.2 64.65-1.2L64.65-1.2Q65.6-1.2 67-2.95L67-2.95Q69.05-5.5 71.05-9.6L71.05-9.6Q71.25-10.05 71.5-10.1L71.5-10.1Q71.9-10.25 71.9-9.8L71.9-9.8Q71.9-9.55 71.75-9.2L71.75-9.2Q67.15 0.1 64 0.1L64 0.1Q62.55 0.1 61.65-1.3L61.65-1.3Q61.2-2.05 61.2-3.3 61.2-4.55 61.7-6.35L61.7-6.35Q57.7 0.1 54.8 0.1L54.8 0.1Q54 0.1 53.35-0.4L53.35-0.4Q51.85-1.45 51.85-4L51.85-4Q51.85-8.9 56.1-13.95L56.1-13.95Q58.5-16.75 62-17.6L62-17.6Q62.95-17.85 63.8-17.85L63.8-17.85Q66.1-17.85 67.7-16.25L67.7-16.25Q68.2-15.7 68-15.2 67.8-14.7 67.15-14.8L67.15-14.8Q66.6-16.6 64.75-16.6L64.75-16.6Q62.6-16.6 59.45-13.2L59.45-13.2Q57.65-11.2 56.1-8.5L56.1-8.5Q54.15-5.25 54.15-3.3 54.15-1.35 55.4-1.35L55.4-1.35Q58.4-1.35 63.25-10.55L63.25-10.55Q64.2-12.4 64.85-13.08 65.5-13.75 66.5-13.75L66.5-13.75Q66.7-13.75 67.52-13.6 68.35-13.45 68.75-13.55L68.75-13.55ZM77.75-20.05L77.75-20.05Q77.75-17.8 74.9-15.8L74.9-15.8Q75.9-15.75 77.57-15.75 79.25-15.75 81.8-16L81.8-16Q81.9-15.85 81.9-15.2 81.9-14.55 81.3-13.28 80.7-12 80.22-11.08 79.75-10.15 79.32-9.33 78.9-8.5 78.37-7.3 77.85-6.1 77.5-5.1L77.5-5.1Q76.25-1.3 77.9-1.3L77.9-1.3Q80-1.3 84.1-9.65L84.1-9.65Q84.45-10.3 84.67-10.15 84.9-10 84.9-9.78 84.9-9.55 84.25-8.22 83.6-6.9 82.85-5.5 82.1-4.1 80.5-2.25L80.5-2.25Q78.6 0.05 76.85 0.05L76.85 0.05Q74.9 0.05 74.15-2.3L74.15-2.3Q74-2.75 74-3.65 74-4.55 74.57-6.05 75.15-7.55 76.4-9.7 77.65-11.85 77.8-12.23 77.95-12.6 77.95-12.95L77.95-12.95Q77.95-14.5 73.95-14.6L73.95-14.6 73.35-13Q70.2-4.75 67.3-1.95L67.3-1.95Q66.8-1.5 66.8-2.25L66.8-2.25Q66.8-2.4 66.9-2.6L66.9-2.6Q69.7-6.3 71.75-11.35 73.8-16.4 74.6-20.95L74.6-20.95Q74.9-22.5 76-22.5 77.1-22.5 77.6-21.1L77.6-21.1Q77.75-20.65 77.75-20.05ZM77.09 15.8L77.09 15.8Q74.89 15.8 73.69 14.88 72.49 13.95 72.49 12.65 72.49 11.35 73.24 9.7L73.24 9.7Q74.54 7.15 77.94 5.6L77.94 5.6Q80.49 4.4 84.69 3.38 88.89 2.35 90.09 2L90.09 2Q91.89-1.15 94.39-9.25L94.39-9.25Q91.49-4.15 89.54-2.1 87.59-0.05 85.59-0.05L85.59-0.05Q82.89-0.05 82.44-2.3L82.44-2.3Q82.24-2.65 82.34-3.35 82.44-4.05 82.47-4.35 82.49-4.65 82.79-5.33 83.09-6 83.19-6.3L83.19-6.3Q83.74-7.45 84.14-8.1L84.14-8.1Q83.34-8.1 83.69-8.9L83.69-8.9 84.59-10.65Q86.29-13.9 87.39-16.15L87.39-16.15Q87.89-17.2 89.34-17.2L89.34-17.2 92.39-17.2Q92.29-17.1 91.89-16.8L91.89-16.8Q90.99-16.2 90.54-15.4L90.54-15.4Q88.74-12.3 86.04-6.55L86.04-6.55Q84.94-4.2 84.94-3.1 84.94-2 85.32-1.55 85.69-1.1 86.34-1.1L86.34-1.1Q87.29-1.1 88.99-3.1L88.99-3.1Q92.54-7.25 96.84-16.15L96.84-16.15Q97.39-17.2 98.79-17.2L98.79-17.2 101.49-17.2Q100.19-16.3 99.44-14.93 98.69-13.55 97.82-11.2 96.94-8.85 95.62-4.95 94.29-1.05 93.59 0.9L93.59 0.9Q98.29-0.5 100.79-4.05L100.79-4.05Q101.89-5.6 103.94-9.55L103.94-9.55Q104.29-10.25 104.57-10.1 104.84-9.95 104.84-9.7 104.84-9.45 104.02-7.78 103.19-6.1 102.34-4.67 101.49-3.25 100.14-1.75 98.79-0.25 97.14 0.63 95.49 1.5 92.74 2.5L92.74 2.5Q88.89 9.5 84.99 12.8L84.99 12.8Q81.34 15.8 77.09 15.8ZM74.19 10.85L74.19 10.85Q73.64 11.95 73.64 12.88 73.64 13.8 74.34 14.3 75.04 14.8 76.09 14.8L76.09 14.8Q78.99 14.8 82.29 11.83 85.59 8.85 88.09 5.45L88.09 5.45 89.19 3.6Q80.94 5.75 78.79 6.7L78.79 6.7Q75.59 8.1 74.19 10.85ZM106.74-9.65Q106.69-9.45 106.29-8.28 105.89-7.1 105.62-6.03 105.34-4.95 105.34-3.88 105.34-2.8 105.84-1.88 106.34-0.95 107.44-0.95L107.44-0.95Q109.24-0.95 110.94-3.38 112.64-5.8 114.54-9.55L114.54-9.55Q114.94-10.25 115.29-10.1L115.29-10.1Q115.54-9.9 115.39-9.58 115.24-9.25 114.77-8.18 114.29-7.1 114.07-6.68 113.84-6.25 113.27-5.18 112.69-4.1 112.27-3.58 111.84-3.05 111.12-2.23 110.39-1.4 109.74-1L109.74-1Q107.99 0.1 106.44 0.1 104.89 0.1 104.04-0.58 103.19-1.25 103.02-2.02 102.84-2.8 102.84-3.4 102.84-4 102.89-4.95L102.89-4.95Q103.04-6.55 103.52-8.05 103.99-9.55 104.04-9.75L104.04-9.75Q105.19-13.9 107.32-18.8 109.44-23.7 110.92-26.18 112.39-28.65 113.24-29.55L113.24-29.55Q114.94-31.35 116.59-31.35L116.59-31.35Q117.74-31.35 118.14-29.7L118.14-29.7Q118.19-29.4 118.19-28.95L118.19-28.95Q118.19-27.25 116.99-24.65L116.99-24.65Q112.69-15.1 106.74-9.65L106.74-9.65ZM107.14-11.25Q109.69-13.85 112.19-17.8 114.69-21.75 115.87-24.53 117.04-27.3 117.04-28.3 117.04-29.3 116.69-29.3L116.69-29.3Q116.19-29.3 114.79-27.33 113.39-25.35 111.02-20.23 108.64-15.1 107.14-11.25L107.14-11.25Z" opacity="1" transform="matrix(1,0,0,1,0,0)" fill="#e6b17e" class="wordmark-text-0" data-fill-palette-color="primary" id="text-0"></path></svg></g></svg></g></svg></g></svg></g></svg></g></svg></g></svg></g><g><path d="M0 123.6c0-68.262 55.338-123.6 123.6-123.6 42.053 0 79.201 21.002 101.528 53.089l-6.335 0c-21.584-29.091-56.187-47.945-95.193-47.945-65.421 0-118.456 53.034-118.456 118.456 0 65.421 53.034 118.456 118.456 118.456 39.006 0 73.609-18.853 95.193-47.945l6.335 0c-22.326 32.087-59.474 53.089-101.528 53.089-68.262 0-123.6-55.338-123.6-123.6z" fill="#e6b17e" stroke="transparent" data-fill-palette-color="tertiary"></path></g></svg></g><defs></defs></svg><rect width="395.52" height="247.2" fill="none" stroke="none" visibility="hidden"></rect></g></svg></g></svg>